<svg id="Layer_1" data-name="Layer 1" xmlns="http://www.w3.org/2000/svg" viewBox="0 0 285.96 178.11"><defs><style>.cls-1,.cls-4{fill:#f58220;}.cls-2,.cls-3{fill:#808285;}.cls-3,.cls-4{fill-rule:evenodd;}.cls-4{stroke:#f58220;stroke-miterlimit:22.93;stroke-width:0.57px;}</style></defs><title>logo</title><path class="cls-1" d="M280.39,436.53a2.72,2.72,0,0,1-1.08,5.34,67.06,67.06,0,0,1-52.6-54,67.78,67.78,0,0,1-1-11.73,67.17,67.17,0,0,1,48.41-64.47,2.72,2.72,0,1,1,1.51,5.23,61.77,61.77,0,0,0-43.51,70,60.9,60.9,0,0,0,2.8,10.41,61.75,61.75,0,0,0,45.5,39.23Z" transform="translate(-162 -307)"/><path class="cls-1" d="M354.18,385.56a2.34,2.34,0,1,1,4.63.69,66.81,66.81,0,0,1-66,56.6,2.34,2.34,0,1,1,0-4.68,62.08,62.08,0,0,0,61.35-52.61Z" transform="translate(-162 -307)"/><path class="cls-1" d="M290.35,316.41a4.67,4.67,0,0,1-.33-9.34l1.39,0,1.42,0a69.16,69.16,0,0,1,68.3,58.59,4.68,4.68,0,1,1-9.26,1.39,59.71,59.71,0,0,0-59-50.61H291.6l-1.25,0Z" transform="translate(-162 -307)"/><path class="cls-1" d="M336.62,403.62a2.33,2.33,0,0,1,3.95,2.49,56.48,56.48,0,0,1-6.73,8.7,55.71,55.71,0,0,1-15.55,11.61,56.77,56.77,0,0,1-7.9,3.27,56.44,56.44,0,0,1-66.52-25.6,54,54,0,0,1-2.58-5.09,55.69,55.69,0,0,1-2-5.34h0a56.4,56.4,0,0,1,36-71.15h0a56.38,56.38,0,0,1,71.15,36,2.25,2.25,0,0,1,.11.72h0a2.34,2.34,0,0,1-4.61.59,51.73,51.73,0,0,0-65.08-32.94l-.26.08a51.73,51.73,0,0,0-32.91,65.21h0q.82,2.51,1.89,4.91a51,51,0,0,0,2.36,4.67,51.78,51.78,0,0,0,74.93,16.43,51,51,0,0,0,7.58-6.61,52.17,52.17,0,0,0,6.18-8Z" transform="translate(-162 -307)"/><path class="cls-1" d="M334.19,376.1a2.34,2.34,0,1,1,4.68,0,46,46,0,1,1-46-46.05,2.35,2.35,0,0,1,0,4.69,41.35,41.35,0,1,0,41.36,41.36Z" transform="translate(-162 -307)"/><path class="cls-1" d="M261,376.1a1.56,1.56,0,0,1-3.12,0A34.91,34.91,0,1,1,292.83,411a1.56,1.56,0,0,1,0-3.12A31.78,31.78,0,1,0,261,376.1Z" transform="translate(-162 -307)"/><path class="cls-2" d="M447.63,475.56c0,3.08-2.21,4.61-6.65,4.61h-13.3c-.93,0-1.4-.42-1.4-1.26a1.23,1.23,0,0,1,1.4-1.37h13.85c1.91,0,2.86-.66,2.86-2v-1q0-1.92-3.21-1.92h-7.34q-7.33,0-7.33-4.38v-1.17c0-2.81,2.32-4.22,7-4.22h3.69c.91,0,1.37.44,1.37,1.3s-.46,1.3-1.37,1.3h-4.44q-3.12,0-3.12,1.62v1.11c0,1.25,1.23,1.88,3.67,1.88h7.5q6.84,0,6.84,4.48v1Zm-26.51-3.95c0,1-.46,1.46-1.39,1.46h-18.6v2.14c0,1.56,1.61,2.33,4.84,2.33h3.47a1.32,1.32,0,1,1,0,2.63h-2.66q-8.8,0-8.8-5.35v-6.65q0-5.32,8.7-5.33h7.14q7.31,0,7.3,4.61v4.16Zm-20-1.27h16.94v-2.56q0-2.34-3.63-2.34H406q-4.85,0-4.84,2.47v2.43Zm-9,8.6c0,.93-.51,1.4-1.53,1.4s-1.52-.47-1.52-1.4V465.18c0-.89.49-1.33,1.46-1.33s1.59.44,1.59,1.33v13.76Zm-9,1q0,5.19-8.6,5.2h-2.6c-.91,0-1.36-.43-1.36-1.27s.45-1.3,1.36-1.3h3q5.08,0,5.09-2.14v-.23H369.13q-9.18,0-9.18-5.22V468.1q0-5.25,8.37-5.26H374q9.12,0,9.12,5.29v11.78Zm-3.22-2.37v-9.21q0-2.9-5-2.89h-7.08q-4.66,0-4.67,2.6v6.88c0,1.75,1.8,2.62,5.42,2.62Zm-26.28-2.62q0,5.25-8.18,5.25h-6.36q-8.34,0-8.34-5.25v-6.69q0-5.39,8.44-5.39h6.26q8.18,0,8.18,5.36v6.72Zm-3.25-7q0-2.51-4.44-2.5h-7.21q-4.83,0-4.83,2.79v6.69q0,2.63,4.83,2.62h7.21q4.44,0,4.44-2.62v-7Zm-26,11c0,.93-.52,1.4-1.56,1.4s-1.59-.47-1.59-1.4V458.72c0-.93.52-1.39,1.56-1.39s1.59.46,1.59,1.39v20.22Zm-9.51-4q0,5.25-8.18,5.25H300.3q-8.34,0-8.34-5.25v-6.69q0-5.39,8.44-5.39h6.26q8.19,0,8.18,5.36v6.72Zm-3.24-7c0-1.67-1.49-2.5-4.45-2.5H300q-4.84,0-4.84,2.79v6.69q0,2.63,4.84,2.62h7.2c3,0,4.45-.87,4.45-2.62v-7Zm-26,11c0,.93-.53,1.4-1.59,1.4s-1.62-.47-1.62-1.4V467.55q0-2.12-4.25-2.11h-7.92q-4.35,0-4.35,2.11v11.39c0,.93-.52,1.4-1.56,1.4s-1.59-.47-1.59-1.4V467.55q0-4.71,8.38-4.71h6.1q8.4,0,8.4,4.71v11.39Zm-29.2,0c0,.93-.53,1.4-1.59,1.4s-1.59-.47-1.59-1.4V468.39q0-3-5.33-2.95H236.41v13.5c0,.93-.53,1.4-1.59,1.4s-1.56-.47-1.56-1.4V458.72c0-.93.52-1.39,1.56-1.39s1.59.46,1.59,1.39v4.12h10.51q9.48,0,9.48,5.49v10.61Zm-40.6,1.23q-8.56,0-8.57-5.12v-7.11q0-5.1,7.79-5.1h11.59c1,0,1.49.43,1.49,1.27s-.5,1.33-1.49,1.33h-12q-4.22,0-4.22,2.4v7.08q0,2.63,4.83,2.62h11.4a1.22,1.22,0,0,1,1.36,1.4c0,.82-.46,1.23-1.36,1.23ZM201,471.61c0,1-.46,1.46-1.39,1.46H181v2.14c0,1.56,1.61,2.33,4.84,2.33h3.47a1.32,1.32,0,1,1,0,2.63h-2.66q-8.79,0-8.79-5.35v-6.65q0-5.32,8.69-5.33h7.14q7.31,0,7.3,4.61v4.16Zm-20-1.27H198v-2.56q0-2.34-3.63-2.34h-8.47q-4.84,0-4.84,2.47v2.43Zm-13-4.9v13.5c0,.93-.51,1.4-1.53,1.4s-1.59-.47-1.59-1.4v-13.5h-1.55a1.16,1.16,0,0,1-1.3-1.33,1.14,1.14,0,0,1,1.3-1.27h1.55v-4.12c0-.93.55-1.39,1.63-1.39s1.49.46,1.49,1.39v4.12h6.33a1.3,1.3,0,0,1,0,2.6Z" transform="translate(-162 -307)"/><path class="cls-3" d="M448,407.68V390.61c0-17.65-16-25.88-31.81-26l-17.74-.09c-5,0-9.6-4.29-9.6-9.37v-8.67c0-7.94,4.5-11.09,12-11.14,1.65,0,3.31.06,5,.06h10.44c5.24,0,7.85-3.17,7.85-8.27s-2.4-8.75-7.85-8.75h-7.93c-11.76,0-27,.06-34.59,10.67-3.43,4.77-4.69,10.48-4.69,16.28v11.46c0,13.5,11.88,26.29,25.58,26.29h21.17c6.3,0,12.4,5.7,12.4,12.09V405c0,8.62-7.66,11.71-15.13,11.71H378c-5.31,0-7.84,3.32-7.84,8.43s2.39,8.76,7.84,8.76h38.84c17.6,0,29.94-7.59,31.13-26.21v0Z" transform="translate(-162 -307)"/><path class="cls-3" d="M181.29,382.15H209c5.39,0,7.84-3.58,7.84-8.69s-2.65-8.23-7.84-8.23H181.29V346.84c0-2.69.24-6.09,2-8.27,2.4-3,7.57-3.36,11.15-3.36H221c5.36,0,8-3.36,8-8.53s-2.85-8.08-8-8.08H193c-8.92,0-19.44,1.29-25.5,8.62C163,332.68,162,340.15,162,347V427.9c0,6.1,4.16,8.68,9.86,8.68s9.43-2.77,9.43-8.68V382.15Z" transform="translate(-162 -307)"/><path class="cls-4" d="M390.58,458.17a2.08,2.08,0,1,1-2.07,2.08,2.08,2.08,0,0,1,2.07-2.08Z" transform="translate(-162 -307)"/></svg>