<svg width="18" height="18" viewBox="0 0 18 18" fill="none" xmlns="http://www.w3.org/2000/svg">
<path d="M13.377 11.6288H12.587L12.307 11.3588C13.507 9.9588 14.127 8.0488 13.787 6.0188C13.317 3.2388 10.997 1.0188 8.19697 0.678799C3.96697 0.158799 0.406968 3.7188 0.926968 7.9488C1.26697 10.7488 3.48697 13.0688 6.26697 13.5388C8.29697 13.8788 10.207 13.2588 11.607 12.0588L11.877 12.3388V13.1288L16.127 17.3788C16.537 17.7888 17.207 17.7888 17.617 17.3788C18.027 16.9688 18.027 16.2988 17.617 15.8888L13.377 11.6288ZM7.37697 11.6288C4.88697 11.6288 2.87697 9.6188 2.87697 7.1288C2.87697 4.6388 4.88697 2.6288 7.37697 2.6288C9.86697 2.6288 11.877 4.6388 11.877 7.1288C11.877 9.6188 9.86697 11.6288 7.37697 11.6288Z" fill="#000"/>
</svg>
